<?xml version="1.0" encoding="utf-8"?>
<!-- Generator: Adobe Illustrator 19.0.0, SVG Export Plug-In . SVG Version: 6.00 Build 0)  -->
<svg version="1.1" id="Слой_1" xmlns="http://www.w3.org/2000/svg" xmlns:xlink="http://www.w3.org/1999/xlink" x="0px" y="0px"
	 viewBox="0 0 20 20" style="enable-background:new 0 0 20 20;" xml:space="preserve">
<style type="text/css">
	.st0{fill:#0099CC;}
	.st1{fill:#FFFFFF;}
</style>
<g id="XMLID_33_">
	<path class="st0" d="M17.461,0H2.539C1.139,0,0,1.139,0,2.539v14.922C0,18.861,1.139,20,2.539,20h14.922
		c1.4,0,2.539-1.139,2.539-2.539V2.539C20,1.139,18.861,0,17.461,0z"/>
</g>
<path id="XMLID_4_" class="st1" d="M16.551,5.608c-0.488-0.488-1.279-0.488-1.768,0l-6.645,6.645L5.686,9.801
	c-0.488-0.488-1.279-0.488-1.768,0s-0.488,1.279,0,1.768l3.336,3.336c0.244,0.244,0.564,0.366,0.884,0.366s0.64-0.122,0.884-0.366
	l7.529-7.528C17.039,6.888,17.039,6.097,16.551,5.608z"/>
</svg>
