<?xml version="1.0" encoding="utf-8"?>
<!-- Generator: Adobe Illustrator 19.0.0, SVG Export Plug-In . SVG Version: 6.00 Build 0)  -->
<svg version="1.1" id="Слой_1" xmlns="http://www.w3.org/2000/svg" xmlns:xlink="http://www.w3.org/1999/xlink" x="0px" y="0px"
	 viewBox="0 0 20 20" style="enable-background:new 0 0 20 20;" xml:space="preserve">
<style type="text/css">
	.st0{fill:#FFFFFF;}
	.st1{fill:#333333;}
</style>
<g id="XMLID_33_">
	<path id="XMLID_1_" class="st0" d="M19,3.539C19,2.137,17.863,1,16.461,1H2.539C1.137,1,0,2.137,0,3.539v13.922
		C0,18.863,1.137,20,2.539,20h13.922C17.863,20,19,18.863,19,17.461V3.539z"/>
	<path id="XMLID_2_" class="st1" d="M16.961,20H3.039C1.363,20,0,18.637,0,16.961V3.039C0,1.363,1.363,0,3.039,0h13.922
		C18.637,0,20,1.363,20,3.039v13.922C20,18.637,18.637,20,16.961,20z M3.039,1C1.915,1,1,1.915,1,3.039v13.922
		C1,18.085,1.915,19,3.039,19h13.922C18.085,19,19,18.085,19,16.961V3.039C19,1.915,18.085,1,16.961,1H3.039z"/>
</g>
</svg>
