<?xml version="1.0" encoding="utf-8"?>
<!-- Generator: Adobe Illustrator 19.0.0, SVG Export Plug-In . SVG Version: 6.00 Build 0)  -->
<svg version="1.1" id="Слой_1" fill="#0690b5" xmlns="http://www.w3.org/2000/svg" xmlns:xlink="http://www.w3.org/1999/xlink" x="0px" y="0px"
	 viewBox="0 0 40 20" style="enable-background:new 0 0 40 20;" xml:space="preserve">
<g id="XMLID_1_">
	<path id="XMLID_5_" d="M32.394,12.258c-1.982,0-3.588,1.607-3.588,3.588c0,1.981,1.606,3.587,3.588,3.587
		c1.981,0,3.587-1.606,3.587-3.587C35.982,13.865,34.376,12.258,32.394,12.258z M32.394,18.05c-1.217,0-2.204-0.987-2.204-2.203
		c0-1.217,0.987-2.204,2.204-2.204c1.217,0,2.204,0.987,2.204,2.204C34.598,17.063,33.611,18.05,32.394,18.05z"/>
	<path id="XMLID_17_" d="M7.477,12.258c-1.981,0-3.588,1.607-3.588,3.588c0,1.981,1.606,3.587,3.588,3.587
		c1.981,0,3.588-1.606,3.588-3.587C11.064,13.865,9.458,12.258,7.477,12.258z M7.477,18.05c-1.217,0-2.204-0.987-2.204-2.203
		c0-1.217,0.987-2.204,2.204-2.204c1.217,0,2.204,0.987,2.204,2.204C9.68,17.063,8.694,18.05,7.477,18.05z"/>
	<path id="XMLID_20_" d="M36.89,4.883c-1.573-4.316-5.648-4.135-5.648-4.135L4.999,0.566c0,0-3.746,0.216-3.531,0.863
		c0.216,0.647-0.216,12.834-0.216,12.834l0.606,0.721l0.17,1.394l1.422,0.978l0.045-1.534c0-0.017-0.001-0.032-0.001-0.049
		c0-2.184,1.771-3.955,3.955-3.955c2.184,0,3.955,1.771,3.955,3.955c0,0.024-0.001-0.012-0.002,0.012l0.029,1.881h17.045
		l-0.028-1.881c0-0.024-0.002-0.018-0.002-0.042c0-2.184,1.771-3.94,3.955-3.94c2.181,0,3.95,1.774,3.955,3.953l0.101,2.028
		l2.215-1.005l0.073-6.117C38.747,10.663,37.412,6.315,36.89,4.883z M9.428,6.984L7.437,5.405l-4.31-0.868c0,0-0.597-1.658,0-2.605
		c0.439-0.697,15.88-0.308,24.016-0.054l0.516,6.057c-1.483,0.004-3.104,0.075-3.104,0.075L9.428,6.984z M36.111,8.464
		c-0.085,0.578-3.058,0.493-3.058,0.493s-2.494-0.827-3.385-0.947c-0.298-0.04-0.744-0.061-1.249-0.07l-0.453-6.036
		c2.467,0.079,4.085,0.139,4.085,0.139S36.883,3.196,36.111,8.464z"/>
</g>
</svg>
