<?xml version="1.0" encoding="utf-8"?>
<!-- Generator: Adobe Illustrator 19.0.0, SVG Export Plug-In . SVG Version: 6.00 Build 0)  -->
<svg version="1.1" id="Слой_1" fill="#0691b5" xmlns="http://www.w3.org/2000/svg" xmlns:xlink="http://www.w3.org/1999/xlink" x="0px" y="0px"
	 viewBox="0 0 20 20" style="enable-background:new 0 0 20 20;" xml:space="preserve">
<path d="M4.835,0.907L7.711,4.61L7.75,4.666c0.136,0.187,0.232,0.387,0.288,0.596c0.062,0.234,0.077,0.478,0.04,0.731
	c-0.037,0.25-0.116,0.482-0.241,0.69l-0.03,0.044C7.687,6.917,7.53,7.082,7.341,7.219L7.296,7.25l-1.399,1.02
	C5.809,8.472,5.704,8.917,6.088,9.467c0.617,0.885,1.304,1.706,2.058,2.459l0.002,0.002l0.001-0.002
	c0.76,0.76,1.581,1.449,2.458,2.061c0.551,0.385,0.996,0.279,1.198,0.191l1.053-1.443l-0.002-0.001
	c0.148-0.203,0.328-0.369,0.537-0.495v-0.001c0.207-0.124,0.439-0.205,0.69-0.241l0.028-0.003c0.243-0.03,0.479-0.016,0.704,0.044
	l0.041,0.012c0.216,0.064,0.421,0.169,0.609,0.316l0.001-0.001l3.704,2.876l0.059,0.05c0.187,0.158,0.337,0.345,0.445,0.556h0.001
	c0.119,0.23,0.188,0.488,0.199,0.762c0.012,0.271-0.031,0.532-0.13,0.773h0.001c-0.098,0.242-0.25,0.461-0.452,0.649
	c-0.239,0.222-0.532,0.452-0.887,0.665l-0.042,0.024c-0.34,0.201-0.742,0.389-1.211,0.546c-2.035,0.677-4.21,0.555-6.296-0.14
	c-2.209-0.735-4.324-2.111-6.06-3.847C3.06,13.543,1.684,11.429,0.949,9.22c-0.694-2.086-0.816-4.262-0.14-6.297
	c0.162-0.488,0.36-0.902,0.569-1.251L1.379,1.67L1.378,1.669c0.214-0.354,0.443-0.647,0.665-0.885
	c0.188-0.203,0.407-0.354,0.649-0.452l0.062-0.023c0.223-0.082,0.463-0.117,0.712-0.107c0.274,0.012,0.531,0.08,0.762,0.199
	l0.04,0.023L4.835,0.907L4.835,0.907z M6.528,5.531L6.528,5.531L3.651,1.828l0.001-0.001C3.624,1.789,3.593,1.76,3.562,1.741
	L3.542,1.732c-0.039-0.021-0.088-0.033-0.14-0.035C3.357,1.695,3.315,1.699,3.281,1.71L3.256,1.721
	C3.216,1.737,3.176,1.765,3.14,1.804c-0.156,0.167-0.321,0.378-0.478,0.64H2.661c-0.159,0.265-0.31,0.58-0.432,0.949
	C1.66,5.101,1.771,6.956,2.369,8.75c0.656,1.975,1.905,3.883,3.489,5.467c1.584,1.584,3.493,2.833,5.469,3.49
	c1.794,0.597,3.647,0.709,5.357,0.14c0.354-0.117,0.659-0.26,0.918-0.413l0.03-0.02c0.262-0.157,0.473-0.322,0.64-0.477
	c0.038-0.036,0.067-0.077,0.084-0.116l0.002,0.001l0.001-0.003c0.016-0.039,0.023-0.089,0.021-0.143
	c-0.002-0.053-0.015-0.102-0.035-0.141l0.001-0.001l-0.001-0.003c-0.015-0.028-0.037-0.058-0.068-0.084l-0.028-0.021l-3.703-2.876
	l0.001-0.002l-0.001-0.001c-0.032-0.025-0.066-0.044-0.098-0.055l-0.019-0.005c-0.038-0.01-0.08-0.012-0.124-0.008l-0.009,0.001
	c-0.05,0.007-0.093,0.022-0.127,0.042l-0.001-0.001l-0.003,0.001c-0.032,0.019-0.064,0.051-0.093,0.092l-0.002-0.002l-0.001,0.002
	l-1.133,1.552c-0.06,0.092-0.141,0.173-0.243,0.233c-0.003,0.003-1.326,0.942-2.94-0.185c-0.968-0.676-1.857-1.42-2.664-2.226
	l0.001-0.001c-0.813-0.814-1.557-1.702-2.227-2.663C3.734,8.71,4.674,7.386,4.677,7.383l0.001,0.001
	c0.05-0.084,0.118-0.16,0.202-0.221l1.531-1.117l0.052-0.04c0.033-0.024,0.061-0.05,0.08-0.076l0.012-0.021
	C6.575,5.874,6.589,5.83,6.595,5.781C6.602,5.733,6.6,5.688,6.591,5.649C6.582,5.618,6.567,5.587,6.55,5.558L6.528,5.531
	L6.528,5.531z M4.833,0.909L4.833,0.909l0.002-0.002L4.833,0.909L4.833,0.909z M4.832,0.907L4.832,0.907l0.001,0.002L4.832,0.907
	L4.832,0.907z"/>
</svg>

