<?xml version="1.0" encoding="utf-8"?>
<!-- Generator: Adobe Illustrator 19.0.0, SVG Export Plug-In . SVG Version: 6.00 Build 0)  -->
<svg version="1.1" id="Layer_1" xmlns="http://www.w3.org/2000/svg" xmlns:xlink="http://www.w3.org/1999/xlink" x="0px" y="0px"
	 fill="#0690b5" viewBox="0 0 17.966 20" style="enable-background:new 0 0 17.966 20;" xml:space="preserve">
<g>
	<path d="M8.983,9.896c2.728,0,4.948-2.22,4.948-4.948S11.711,0,8.983,0C6.255,0,4.035,2.219,4.035,4.948S6.255,9.896,8.983,9.896z
		 M8.983,1.149c2.095,0,3.799,1.704,3.799,3.799c0,2.095-1.704,3.799-3.799,3.799c-2.095,0-3.799-1.704-3.799-3.799
		C5.185,2.853,6.889,1.149,8.983,1.149z"/>
	<path d="M12.087,10.739H5.88c-3.242,0-5.88,2.638-5.88,5.88v2.807C0,19.742,0.258,20,0.575,20h16.817
		c0.317,0,0.575-0.258,0.575-0.575v-2.807C17.966,13.377,15.329,10.739,12.087,10.739z M5.88,11.888h6.207
		c2.608,0,4.731,2.122,4.731,4.731v2.232H1.149v-2.232C1.149,14.01,3.271,11.888,5.88,11.888z"/>
</g>
</svg>
