<?xml version="1.0" encoding="UTF-8"?>
<svg enable-background="new 0 0 40 20" fill="#0690b5" version="1.1" viewBox="0 0 40 20" xml:space="preserve" xmlns="http://www.w3.org/2000/svg">
	<path d="m32.394 12.258c-1.982 0-3.588 1.607-3.588 3.588s1.606 3.587 3.588 3.587c1.981 0 3.587-1.606 3.587-3.587 1e-3 -1.981-1.605-3.588-3.587-3.588zm0 5.792c-1.217 0-2.204-0.987-2.204-2.203 0-1.217 0.987-2.204 2.204-2.204s2.204 0.987 2.204 2.204c0 1.216-0.987 2.203-2.204 2.203z"/>
	<path d="m7.477 12.258c-1.981 0-3.588 1.607-3.588 3.588s1.606 3.587 3.588 3.587c1.981 0 3.588-1.606 3.588-3.587-1e-3 -1.981-1.607-3.588-3.588-3.588zm0 5.792c-1.217 0-2.204-0.987-2.204-2.203 0-1.217 0.987-2.204 2.204-2.204s2.204 0.987 2.204 2.204c-1e-3 1.216-0.987 2.203-2.204 2.203z"/>
	<path d="m36.89 4.883c-1.573-4.316-5.648-4.135-5.648-4.135l-26.243-0.182s-3.746 0.216-3.531 0.863c0.216 0.647-0.216 12.834-0.216 12.834l0.606 0.721 0.17 1.394 1.422 0.978 0.045-1.534c0-0.017-1e-3 -0.032-1e-3 -0.049 0-2.184 1.771-3.955 3.955-3.955s3.955 1.771 3.955 3.955c0 0.024-1e-3 -0.012-2e-3 0.012l0.029 1.881h17.045l-0.028-1.881c0-0.024-2e-3 -0.018-2e-3 -0.042 0-2.184 1.771-3.94 3.955-3.94 2.181 0 3.95 1.774 3.955 3.953l0.101 2.028 2.215-1.005 0.073-6.117c2e-3 1e-3 -1.333-4.347-1.855-5.779zm-27.462 2.101l-1.991-1.579-4.31-0.868s-0.597-1.658 0-2.605c0.439-0.697 15.88-0.308 24.016-0.054l0.516 6.057c-1.483 4e-3 -3.104 0.075-3.104 0.075l-15.127-1.026zm26.683 1.48c-0.085 0.578-3.058 0.493-3.058 0.493s-2.494-0.827-3.385-0.947c-0.298-0.04-0.744-0.061-1.249-0.07l-0.453-6.036c2.467 0.079 4.085 0.139 4.085 0.139s4.832 1.153 4.06 6.421z"/>
</svg>
