<?xml version="1.0" encoding="utf-8"?>
<!-- Generator: Adobe Illustrator 19.0.0, SVG Export Plug-In . SVG Version: 6.00 Build 0)  -->
<svg version="1.1" xmlns="http://www.w3.org/2000/svg" xmlns:xlink="http://www.w3.org/1999/xlink" x="0px" y="0px"
	 viewBox="0 0 40 40" style="enable-background:new 0 0 40 40;" xml:space="preserve">
<style type="text/css">
	.st0{fill:#B5B5B5;}
</style>
<g id="Layer_1">
</g>
<g id="Layer_2">
	<g>
		<g>
			<path class="st0" d="M0,20C0,8.972,8.972,0,20,0c11.028,0,20,8.972,20,20s-8.972,20-20,20C8.972,40,0,31.028,0,20z M38.191,20
				c0-10.031-8.16-18.191-18.191-18.191C9.969,1.809,1.809,9.969,1.809,20S9.969,38.191,20,38.191
				C30.031,38.191,38.191,30.031,38.191,20z M4.669,24.374c0-0.192,0.061-0.381,0.178-0.539c0.171-0.23,0.44-0.366,0.727-0.366
				h5.922c0.339,0,0.649,0.189,0.804,0.49c1.064,2.065,2.942,3.639,5.152,4.318c0.38,0.117,0.639,0.468,0.639,0.865v5.666
				c0,0.269-0.12,0.525-0.328,0.697c-0.207,0.172-0.481,0.242-0.745,0.192c-5.857-1.111-10.574-5.349-12.309-11.06
				C4.682,24.551,4.669,24.462,4.669,24.374z M10.962,25.279H6.85c1.655,4.131,5.135,7.232,9.432,8.394v-3.886
				C14.061,28.941,12.168,27.337,10.962,25.279z M4.669,15.626c0-0.088,0.013-0.177,0.039-0.263
				c1.735-5.711,6.451-9.949,12.309-11.06c0.265-0.05,0.538,0.02,0.745,0.192c0.207,0.172,0.328,0.427,0.328,0.697v5.666
				c0,0.397-0.259,0.748-0.639,0.865c-2.21,0.679-4.088,2.253-5.152,4.318c-0.155,0.301-0.465,0.49-0.804,0.49H5.574
				c-0.287,0-0.556-0.136-0.727-0.366C4.73,16.007,4.669,15.818,4.669,15.626z M16.281,6.327C11.985,7.49,8.505,10.59,6.85,14.721
				h4.112c1.206-2.059,3.1-3.662,5.32-4.509V6.327z M21.91,34.808v-5.973c0-0.255,0.108-0.498,0.296-0.67
				c1.678-1.524,2.762-4.729,2.762-8.166c0-3.437-1.084-6.642-2.762-8.166c-0.189-0.171-0.296-0.415-0.296-0.67V5.192
				c0-0.27,0.12-0.525,0.328-0.697c0.207-0.172,0.481-0.242,0.745-0.192C30.514,5.732,35.98,12.333,35.98,20
				c0,7.667-5.466,14.268-12.997,15.697c-0.265,0.05-0.538-0.02-0.745-0.192C22.03,35.333,21.91,35.077,21.91,34.808z
				 M23.719,29.218v4.454C29.837,32.013,34.171,26.429,34.171,20S29.837,7.987,23.719,6.328v4.454
				c1.895,1.948,3.058,5.429,3.058,9.218C26.777,23.789,25.613,27.27,23.719,29.218z"/>
		</g>
		<g>
			<path class="st0" d="M19.233,23.229v-6.457c0-0.5,0.405-0.905,0.905-0.905c0.5,0,0.905,0.405,0.905,0.905v6.457
				c0,0.5-0.405,0.905-0.905,0.905C19.638,24.133,19.233,23.728,19.233,23.229z"/>
		</g>
		<g>
			<path class="st0" d="M14.811,21.238v-2.476c0-0.5,0.405-0.905,0.905-0.905c0.5,0,0.905,0.405,0.905,0.905v2.476
				c0,0.5-0.405,0.905-0.905,0.905C15.216,22.143,14.811,21.738,14.811,21.238z"/>
		</g>
	</g>
</g>
</svg>
